<?xml version="1.0" encoding="UTF-8"?>
<!-- Created with Inkscape (http://www.inkscape.org/) -->
<svg width="6666.7" height="3921.3" version="1.1" viewBox="0 0 6666.7 3921.3" xmlns="http://www.w3.org/2000/svg" xmlns:cc="http://creativecommons.org/ns#" xmlns:dc="http://purl.org/dc/elements/1.1/" xmlns:rdf="http://www.w3.org/1999/02/22-rdf-syntax-ns#">
 <metadata>
  <rdf:RDF>
   <cc:Work rdf:about="">
    <dc:format>image/svg+xml</dc:format>
    <dc:type rdf:resource="http://purl.org/dc/dcmitype/StillImage"/>
    <dc:title/>
   </cc:Work>
  </rdf:RDF>
 </metadata>
 <path d="m5302.3 2786.9c-104.23-12.357-196.55-76.932-244.64-171.12-21.866-42.825-33.526-86.558-36.755-137.86-0.95-15.089-1.252-180.07-0.938-512.91 0.432-457.23 0.621-491.76 2.777-506.67 6.011-41.563 18.513-80.546 36.561-114 51.893-96.189 136.81-155.77 243.66-170.96 8.512-1.2103 32.15-1.7062 81.333-1.7062 59.606 0 71.399 0.3281 84.055 2.3385 68.614 10.899 126.25 39.532 175.1 86.98 27.864 27.068 47.997 54.506 65.545 89.329 19.336 38.373 30.642 76.913 34.62 118.02 1.069 11.05 1.357 156.88 1.03 522l-0.453 506.67-3.533 18.667c-26.738 141.29-130.22 245.91-266.58 269.53-10.263 1.7774-25.57 2.2196-87.117 2.5168-41.067 0.1983-79.167-0.173-84.667-0.825zm151.37-128.52c29.228-4.7407 58.445-17.119 81.632-34.585 16.428-12.376 38.455-35.195 49.406-51.184 20.319-29.667 32.378-62.839 36.306-99.874 0.94-8.8596 1.257-171.31 0.986-505.06-0.378-464.93-0.53-492.64-2.766-503.68-6.058-29.919-16.715-55.496-31.27-75.053-34.345-46.149-96.794-78.712-165-86.037-31.548-3.3881-89.122 0.6421-125.23 8.7662-74.553 16.775-127.65 63.494-146.64 129.02-7.905 27.28-7.462-4.4312-7.462 534.53 0 538.82-0.49 503.55 7.412 533.97 16.466 63.375 66.014 119.2 124.32 140.08 11.474 4.1076 29.382 8.5401 40.936 10.132 2.2 0.3032 31.3 0.6388 64.667 0.7456 47.65 0.1528 63.25-0.2245 72.706-1.7582zm-4481.4 113.66c-0.355-0.9352-0.492-359.6-0.304-797.03l0.34-795.33 237.33-0.4053c165.14-0.2821 243.82 0.048 258.67 1.0842 98.438 6.8731 179.62 37.662 252.67 95.826 17.163 13.666 51.587 48.23 65.894 66.162 46.343 58.083 75.369 122.92 88.64 198 7.928 44.847 7.466 17.832 7.466 436.67 0 361-0.136 383.72-2.405 401.33-8.276 64.239-19.902 105.18-43.544 153.33-48.741 99.282-136.33 177.55-239.4 213.93-30.709 10.839-64.943 18.852-103.98 24.34l-21.334 2.9987-249.7 0.399c-201.45 0.3219-249.82 0.071-250.34-1.3013zm475.37-285.62c27.122-3.6189 55.74-15.36 83.504-34.258 34.623-23.567 52.765-50.428 62.034-91.845l3.128-13.976v-370c0-351.72-0.118-370.54-2.406-380.93-7.444-33.803-19.23-56.05-40.527-76.496-25.828-24.796-63.201-44.291-98.824-51.552-10.418-2.1232-20.849-2.3594-104.24-2.3594h-92.666l-0.341 510c-0.188 280.5-0.06 510.75 0.291 511.67 0.969 2.553 170.71 2.3268 190.05-0.2535zm776 286.36c-12.511-1.9838-31.431-6.593-41.174-10.031-59.105-20.855-105.92-71.318-122.04-131.55-8.051-30.084-7.589 12.637-7.157-662.19 0.367-574.49 0.547-616.81 2.673-628.04 9.886-52.228 36.697-95.18 78.362-125.53 25.457-18.546 55.27-30.233 87.893-34.455 13.398-1.7337 56.012-1.9521 322.11-1.6511l306.67 0.3468v284l-510.67 1.3333v368l154.67 0.3312c143.53 0.3074 154.79 0.4936 156.33 2.5882 1.309 1.7716 1.667 32.146 1.667 141.24 0 124.57-0.217 139.2-2.095 141.08-1.881 1.8807-17.925 2.0952-156.67 2.0952h-154.57v367.99l511.33 0.6735v284l-312 0.1532c-171.6 0.084-313.5-0.085-315.33-0.3753zm1358-2.3179c-39.955-8.6255-73.628-28.203-106-61.628-24.243-25.031-44.171-53.557-63.932-91.515-19.783-37.998-16.412-27.358-56.056-176.98-13.782-52.016-23.064-87.014-30.233-114-4.091-15.4-9.423-35.5-11.847-44.667-2.426-9.1667-16.201-61.067-30.612-115.33-14.411-54.267-28.501-107.37-31.311-118-2.81-10.633-9.724-36.733-15.364-58-5.64-21.267-11.916-44.967-13.947-52.667s-6.722-25.4-10.424-39.333c-21.572-81.188-59.774-225.1-63.534-239.33-2.421-9.1666-9.022-34.067-14.67-55.333-11.751-44.248-20.064-75.596-27.404-103.33-2.814-10.633-16.907-63.733-31.318-118-14.411-54.267-28.187-106.17-30.613-115.33-2.426-9.1666-8.188-30.767-12.805-48-4.618-17.233-8.441-33.133-8.496-35.333l-0.1-4 155.5-0.3388c123.38-0.2689 155.78 0.01 156.87 1.3333 0.757 0.9197 14.629 52.672 30.828 115.01 28.212 108.56 33.044 127.13 41.639 160 2.11 8.0667 16.131 62.067 31.158 120 26.851 103.51 31.842 122.71 39.518 152 2.113 8.0667 17.934 68.967 35.156 135.33 17.221 66.367 33.119 127.57 35.328 136 6.766 25.831 66.206 254.88 68.08 262.33 0.966 3.85 2.244 7 2.839 7s1.081-0.351 1.081-0.78c0-0.7754 27.237-105.91 44.184-170.55 2.115-8.0667 16.135-62.067 31.156-120 26.506-102.23 31.424-121.15 39.509-152 2.114-8.0666 17.934-68.967 35.156-135.33 29.659-114.29 34.336-132.28 43.503-167.33 4.406-16.843 82.668-318.24 86.037-331.33 1.226-4.7666 2.803-9.4166 3.505-10.333 1.009-1.3165 33.889-1.6667 156.49-1.6667 141.28 0 155.28 0.1922 156.03 2.141 0.452 1.1775-2.61 15.128-6.805 31-7.65 28.949-30.475 115.02-41.419 156.19-3.216 12.1-9.826 37-14.688 55.333s-11.468 43.233-14.681 55.333c-11.405 42.955-34.004 128.19-50.021 188.67-8.934 33.733-19.127 72.133-22.651 85.333s-10.135 38.1-14.691 55.333c-4.556 17.233-11.477 43.333-15.38 58-8.637 32.459-29.449 110.92-51.282 193.33-8.937 33.733-19.482 73.483-23.434 88.333-9.018 33.88-19.368 72.849-28.952 109-4.082 15.4-12.555 47.35-18.828 71-6.274 23.65-16.539 62.35-22.813 86-6.273 23.65-14.746 55.6-18.829 71-23.774 89.664-24.189 91.044-32.79 109.18-49.138 103.59-104.73 157.95-180.31 176.31-6.75 1.6396-16.712 2.3873-36 2.7018-24.054 0.3924-28.103 0.1254-41.333-2.7313zm949.48-8.2228c-0.448-1.1671-0.815-341.56-0.815-756.42 0-601.42 0.338-754.73 1.667-756.42 2.434-3.0943 122.48-63.953 124.57-63.152 1.465 0.5622 1.71 135.47 1.433 789.05l-0.334 788.37-62.853 0.3462c-56.448 0.3111-62.935 0.1307-63.666-1.7757z" stroke-width="1.3333"/>
</svg>
